<svg height="32" viewBox="0 0 32 32" width="32" xmlns="http://www.w3.org/2000/svg"><path d="m31.739 8.875c-.186-.264-.489-.422-.812-.422h-21.223l-1.607-5.54c-.63-2.182-2.127-2.417-2.741-2.417h-4.284c-.549 0-.993.445-.993.993s.445.993.993.993h4.283c.136 0 .549 0 .831.974l5.527 20.311c.12.428.511.724.956.724h13.499c.419 0 .793-.262.934-.657l4.758-14.053c.11-.304.064-.643-.122-.907zm-6.269 13.631h-12.046l-3.161-12.066h19.253zm-1.97 3.998c-1.381 0-2.5 1.119-2.5 2.5s1.119 2.5 2.5 2.5 2.5-1.119 2.5-2.5-1.119-2.5-2.5-2.5zm-9 0c-1.381 0-2.5 1.119-2.5 2.5s1.119 2.5 2.5 2.5 2.5-1.119 2.5-2.5-1.119-2.5-2.5-2.5z"/></svg>